g river_mesh_LOD2
v 1.5 -0.02043055 18
v 4.5 0.133709 13.5
v 4.5 0.05623075 18
v 1.5 -0.03342307 13.5
v -1.5 -0.02775488 18
v 4.5 0.01839712 9
v -1.5 0.01271256 13.5
v -4.5 0.05931308 18
v -4.5 0.175801 13.5
v 1.5 0.01844289 9
v 4.5 0.1361973 4.5
v -1.5 0.0810964 9
v -4.5 0.009279842 9
v 1.5 -0.06831174 4.5
v 4.5 0.05623234 9.628358E-07
v 1.5 -0.02042899 9.50346E-07
v -1.5 0.1004759 4.5
v -4.5 0.1036116 4.5
v -1.5 -0.02775273 9.491528E-07
v -4.5 0.0593076 9.633368E-07
vt 0.6666667 0
vt 1 0.25
vt 1 0
vt 0.6666667 0.25
vt 0.3333333 0
vt 1 0.5
vt 0.3333333 0.25
vt 0 0
vt 0 0.25
vt 0.6666667 0.5
vt 1 0.75
vt 0.3333333 0.5
vt 0 0.5
vt 0.6666667 0.75
vt 1 1
vt 0.6666667 1
vt 0.3333333 0.75
vt 0 0.75
vt 0.3333333 1
vt 0 1
vn -0.01707002 0.9998412 0.005107316
vn -0.03421946 0.9994143 5.723461E-05
vn -0.04059768 0.9991499 0.007158983
vn -0.01096159 0.9999315 0.004132805
vn 0.02406231 0.999658 0.0102385
vn -0.03094731 0.9995193 -0.001799608
vn 0.02036921 0.9997761 0.005736729
vn 0.04165022 0.9989803 0.01742171
vn 0.02843765 0.9995902 0.003263065
vn -0.001303048 0.999999 0.0005698103
vn -0.04043588 0.9991822 -5.727691E-05
vn 0.01511179 0.999884 0.001902587
vn 0.001880761 0.9999979 0.0008668295
vn -0.0038576 0.999984 -0.004132845
vn -0.04681005 0.9988974 -0.003560759
vn -0.009965407 0.9999309 -0.006246259
vn 0.01725748 0.9998347 -0.005734525
vn 0.001791973 0.9999931 -0.003266687
vn 0.02096611 0.9996816 -0.01404337
vn 0.01502822 0.9997033 -0.01916461
g river_mesh_LOD2_0
f 3/3/3 2/2/2 1/1/1
f 2/2/2 4/4/4 1/1/1
f 1/1/1 4/4/4 5/5/5
f 2/2/2 6/6/6 4/4/4
f 4/4/4 7/7/7 5/5/5
f 5/5/5 7/7/7 8/8/8
f 7/7/7 9/9/9 8/8/8
f 6/6/6 10/10/10 4/4/4
f 4/4/4 10/10/10 7/7/7
f 6/6/6 11/11/11 10/10/10
f 7/7/7 12/12/12 9/9/9
f 10/10/10 12/12/12 7/7/7
f 12/12/12 13/13/13 9/9/9
f 11/11/11 14/14/14 10/10/10
f 10/10/10 14/14/14 12/12/12
f 11/11/11 15/15/15 14/14/14
f 15/15/15 16/16/16 14/14/14
f 12/12/12 17/17/17 13/13/13
f 14/14/14 17/17/17 12/12/12
f 14/14/14 16/16/16 17/17/17
f 17/17/17 18/18/18 13/13/13
f 16/16/16 19/19/19 17/17/17
f 17/17/17 19/19/19 18/18/18
f 19/19/19 20/20/20 18/18/18
