g river_mesh_interior_front_cap_LOD2
v 4.5 0.05623234 9.628358E-07
v 1.498523 -14.94069 9.963618E-06
v 4.498523 -14.94377 9.963118E-06
v 1.5 -0.02042899 9.50346E-07
v -1.501476 -14.94069 9.963618E-06
v -1.5 -0.02775273 9.491528E-07
v -4.501476 -14.94069 9.963618E-06
v -4.5 0.0593076 9.633368E-07
vt 1 1
vt 0.6666667 1
vt 1 1
vt 0.6666667 1
vt 0.3333333 1
vt 0.3333333 1
vt 0 1
vt 0 1
vn 0 -6.020529E-07 -1
vn 0 -6.031684E-07 -1
vn 0 -6.020529E-07 -1
vn 0 -6.031588E-07 -1
vn 0 -6.032612E-07 -1
vn 0 -6.032528E-07 -1
vn 0 -6.022381E-07 -1
vn 0 -6.022381E-07 -1
g river_mesh_interior_front_cap_LOD2_0
f 3/3/3 2/2/2 1/1/1
f 2/2/2 4/4/4 1/1/1
f 2/2/2 5/5/5 4/4/4
f 5/5/5 6/6/6 4/4/4
f 5/5/5 7/7/7 6/6/6
f 7/7/7 8/8/8 6/6/6
