g river_mesh_interior_LOD2
v -4.5 0.175801 13.5
v -4.5 0.05931308 18
v -4.501476 -14.94069 18.00001
v -4.501476 -14.94069 13.50001
v -4.5 0.009279842 9.000001
v -4.501476 -14.94069 9.000009
v -4.5 0.1036116 4.500001
v -4.501476 -14.94069 4.50001
v -4.5 0.0593076 9.633368E-07
v -4.501476 -14.94069 9.963618E-06
v 4.5 0.1361973 4.5
v 4.5 0.05623234 9.628358E-07
v 4.498523 -14.94377 9.963118E-06
v 4.498523 -14.94069 4.50001
v 4.5 0.01839712 9.000001
v 4.498523 -14.94069 9.000009
v 4.5 0.133709 13.5
v 4.498523 -14.94069 13.50001
v 4.5 0.05623075 18
v 4.498523 -14.94069 18.00001
v 4.498523 -14.94069 4.50001
v 4.498523 -14.94377 9.963118E-06
v 1.498523 -14.94069 9.963618E-06
v 1.498523 -14.94069 4.50001
v 4.498523 -14.94069 9.000009
v -1.501476 -14.94069 9.963618E-06
v 1.498523 -14.94069 9.000009
v 4.498523 -14.94069 13.50001
v -1.501476 -14.94069 4.50001
v -4.501476 -14.94069 9.963618E-06
v -4.501476 -14.94069 4.50001
v -1.501476 -14.94069 9.000009
v -4.501476 -14.94069 9.000009
v 1.498523 -14.94069 13.50001
v 4.498523 -14.94069 18.00001
v 1.498524 -14.94069 18.00001
v -1.501476 -14.94069 13.50001
v -4.501476 -14.94069 13.50001
v -1.501476 -14.94069 18.00001
v -4.501476 -14.94069 18.00001
vt 0 0.25
vt 0 0
vt 0 0
vt 0 0.25
vt 0 0.5
vt 0 0.5
vt 0 0.75
vt 0 0.75
vt 0 1
vt 0 1
vt 1 0.75
vt 1 1
vt 1 1
vt 1 0.75
vt 1 0.5
vt 1 0.5
vt 1 0.25
vt 1 0.25
vt 1 0
vt 1 0
vt 1 0.75
vt 1 1
vt 0.6666666 1
vt 0.6666666 0.75
vt 1 0.5
vt 0.3333333 1
vt 0.6666666 0.5
vt 1 0.25
vt 0.3333333 0.75
vt 0 1
vt 0 0.75
vt 0.3333333 0.5
vt 0 0.5
vt 0.6666666 0.25
vt 1 0
vt 0.6666667 0
vt 0.3333333 0.25
vt 0 0.25
vt 0.3333333 0
vt 0 0
vn -1 9.810388E-05 -2.213018E-07
vn -1 9.802261E-05 1.238499E-06
vn -1 9.802261E-05 1.238499E-06
vn -1 9.810417E-05 -2.265865E-07
vn -1 9.829541E-05 -2.876567E-07
vn -1 9.829595E-05 -2.805888E-07
vn -1 9.832395E-05 3.366992E-07
vn -1 9.832425E-05 3.395259E-07
vn -1 9.824232E-05 -4.514455E-07
vn -1 9.824232E-05 -4.514455E-07
vn 1 -9.825012E-05 -1.668155E-07
vn 1 -9.818343E-05 1.014652E-06
vn 1 -9.818343E-05 1.014652E-06
vn 1 -9.82503E-05 -1.69773E-07
vn 1 -9.832917E-05 0
vn 1 -9.832918E-05 0
vn 1 -9.827914E-05 2.235474E-07
vn 1 -9.827931E-05 2.26301E-07
vn 1 -9.821744E-05 -7.893197E-07
vn 1 -9.821744E-05 -7.893197E-07
vn -0.0002562909 -1 0.0001704958
vn -0.0005125817 -0.9999999 0.0003414154
vn -0.0002562908 -1 0.0001706017
vn -0.0001281454 -1 8.508893E-05
vn 0 -1 -1.059638E-07
vn 0 -1 -2.119277E-07
vn 0 -1 -1.059638E-07
vn 0 -1 0
vn -1.412851E-07 -1 -2.914005E-07
vn 0 -1 -2.119277E-07
vn -2.825703E-07 -1 -2.649096E-07
vn -2.825703E-07 -1 -1.059638E-07
vn -5.651406E-07 -1 -1.059638E-07
vn 0 -1 0
vn 0 -1 -2.119275E-07
vn 0 -1 -2.119275E-07
vn -1.412851E-07 -1 0
vn -2.825703E-07 -1 0
vn 0 -1 -2.119275E-07
vn 0 -1 -2.119274E-07
g river_mesh_interior_LOD2_0
f 3/3/3 2/2/2 1/1/1
f 4/4/4 3/3/3 1/1/1
f 4/4/4 1/1/1 5/5/5
f 6/6/6 4/4/4 5/5/5
f 6/6/6 5/5/5 7/7/7
f 8/8/8 6/6/6 7/7/7
f 8/8/8 7/7/7 9/9/9
f 10/10/10 8/8/8 9/9/9
f 13/13/13 12/12/12 11/11/11
f 14/14/14 13/13/13 11/11/11
f 14/14/14 11/11/11 15/15/15
f 16/16/16 14/14/14 15/15/15
f 16/16/16 15/15/15 17/17/17
f 18/18/18 16/16/16 17/17/17
f 18/18/18 17/17/17 19/19/19
f 20/20/20 18/18/18 19/19/19
f 23/23/23 22/22/22 21/21/21
f 24/24/24 23/23/23 21/21/21
f 21/21/21 25/25/25 24/24/24
f 26/26/26 23/23/23 24/24/24
f 25/25/25 27/27/27 24/24/24
f 25/25/25 28/28/28 27/27/27
f 29/29/29 26/26/26 24/24/24
f 24/24/24 27/27/27 29/29/29
f 30/30/30 26/26/26 29/29/29
f 31/31/31 30/30/30 29/29/29
f 29/29/29 32/32/32 31/31/31
f 27/27/27 32/32/32 29/29/29
f 32/32/32 33/33/33 31/31/31
f 28/28/28 34/34/34 27/27/27
f 27/27/27 34/34/34 32/32/32
f 28/28/28 35/35/35 34/34/34
f 35/35/35 36/36/36 34/34/34
f 32/32/32 37/37/37 33/33/33
f 34/34/34 37/37/37 32/32/32
f 34/34/34 36/36/36 37/37/37
f 37/37/37 38/38/38 33/33/33
f 36/36/36 39/39/39 37/37/37
f 37/37/37 39/39/39 38/38/38
f 39/39/39 40/40/40 38/38/38
