g train_track_3x18_procgen_LOD2
v -2 1.907348E-07 2.999999
v -2 3.242493E-07 -6.103515E-07
v -0.834271 0.2403977 -1.168888E-16
v -0.8342709 0.2403976 3
v 0.8342711 0.2403977 -1.432882E-08
v 0.8342711 0.2403978 3
v -2 5.722044E-08 5.999999
v -2 1.907348E-07 2.999999
v -0.8342709 0.2403976 3
v -0.8342709 0.2403974 6
v 0.8342711 0.2403978 3
v 0.8342711 0.2403977 6
v 0.8342711 0.2403978 3
v 0.8342711 0.2403977 -1.432882E-08
v 2 3.242492E-07 -6.103515E-07
v 2 5.483627E-07 2.999999
v 0.8342711 0.2403977 6
v 0.8342711 0.2403978 3
v 2 5.483627E-07 2.999999
v 2 5.91278E-07 5.999999
v -2 -7.272359E-08 8.999999
v -2 5.722044E-08 5.999999
v -0.8342709 0.2403974 6
v -0.8342712 0.2403973 9
v 0.8342711 0.2403977 6
v 0.8342708 0.2403975 9
v 0.8342708 0.2403975 9
v 0.8342711 0.2403977 6
v 2 5.91278E-07 5.999999
v 2 2.849043E-07 8.999999
v -2 -2.026676E-07 12
v -2 -7.272359E-08 8.999999
v -0.8342712 0.2403973 9
v -0.8342716 0.2403972 12
v 0.8342708 0.2403975 9
v 0.8342705 0.2403973 12
v -2 -3.36182E-07 15
v -2 -2.026676E-07 12
v -0.8342716 0.2403972 12
v -0.8342716 0.240397 15
v 0.8342705 0.2403973 12
v 0.8342705 0.2403973 15
v 0.8342705 0.2403973 12
v 0.8342708 0.2403975 9
v 2 2.849043E-07 8.999999
v 1.999999 1.549602E-07 12
v 0.8342705 0.2403973 15
v 0.8342705 0.2403973 12
v 1.999999 1.549602E-07 12
v 1.999999 1.978755E-07 15
v -2 -4.696964E-07 18
v -2 -3.36182E-07 15
v -0.8342716 0.240397 15
v -0.8342714 0.2403969 18
v 0.8342706 0.2403973 18
v 0.8342705 0.2403973 15
v 0.8342706 0.2403973 18
v 0.8342705 0.2403973 15
v 1.999999 1.978755E-07 15
v 1.999999 2.455593E-07 18
v -0.7059122 0.426168 18
v -0.6529596 0.241246 15
v -0.6529593 0.2412462 18
v -0.7059117 0.4261678 15
v -0.6529599 0.2412457 12
v -0.7059112 0.4261677 12
v -0.6529602 0.2412454 8.999999
v -0.7059107 0.4261675 8.999999
v -0.6529605 0.2412452 5.999999
v -0.7059101 0.4261674 5.999999
v -0.6529608 0.2412449 2.999999
v -0.7059097 0.4261672 2.999999
v -0.7059092 0.4261671 -7.131283E-07
v -0.6529611 0.2412447 -6.103515E-07
v 0.7937238 0.4261671 -7.84592E-07
v 0.7059095 0.4261672 2.999999
v 0.7059092 0.4261671 -7.131283E-07
v 0.7937241 0.4261672 2.999999
v 0.8466719 0.2412447 -1.220703E-06
v 0.7059098 0.4261674 5.999999
v 0.8466723 0.2412448 2.999999
v 0.7937244 0.4261674 5.999999
v 0.7059101 0.4261675 9
v 0.8466726 0.2412449 5.999999
v 0.7937247 0.4261675 9
v 0.7059104 0.4261677 12
v 0.8466729 0.2412451 8.999998
v 0.793725 0.4261677 12
v 0.7059107 0.4261678 15
v 0.8466732 0.2412452 12
v 0.7937253 0.4261678 15
v 0.705911 0.426168 18
v 0.8466735 0.2412454 15
v 0.7937257 0.426168 18
v 0.8466738 0.2412455 18
v -0.7937238 0.4261671 -7.84592E-07
v -0.8466725 0.2412448 2.999999
v -0.8466719 0.2412447 -6.103515E-07
v -0.7937244 0.4261672 2.999999
v -0.7059092 0.4261671 -7.131283E-07
v -0.846673 0.2412449 5.999999
v -0.7059097 0.4261672 2.999999
v -0.7937248 0.4261674 5.999999
v -0.8466735 0.2412451 8.999999
v -0.7059101 0.4261674 5.999999
v -0.7937253 0.4261675 8.999999
v -0.846674 0.2412452 12
v -0.7059107 0.4261675 8.999999
v -0.7937258 0.4261677 12
v -0.7059112 0.4261677 12
v -0.8466745 0.2412454 15
v -0.7937263 0.4261678 15
v -0.7059117 0.4261678 15
v -0.7059122 0.426168 18
v -0.7937269 0.426168 18
v -0.846675 0.2412455 18
v 0.652958 0.2412462 18
v 0.7059107 0.4261678 15
v 0.705911 0.426168 18
v 0.6529586 0.241246 15
v 0.7059104 0.4261677 12
v 0.652959 0.2412457 12
v 0.7059101 0.4261675 9
v 0.6529596 0.2412454 8.999999
v 0.7059098 0.4261674 5.999999
v 0.6529601 0.2412452 6
v 0.7059095 0.4261672 2.999999
v 0.6529606 0.2412449 3
v 0.6529611 0.2412447 6.51927E-17
v 0.7059092 0.4261671 -7.131283E-07
vt 0.498469 0.001349453
vt 0.0004745316 0.001349453
vt 0.0004745316 0.3751974
vt 0.498469 0.3751974
vt 0.0004745316 0.8766326
vt 0.498469 0.8766326
vt 0.498469 0.001349453
vt 0.0004745316 0.001349453
vt 0.0004745316 0.3751974
vt 0.498469 0.3751974
vt 0.0004745316 0.8766326
vt 0.498469 0.8766326
vt 0.498469 0.3751974
vt 0.0004745316 0.3751974
vt 0.0004745316 0.001349453
vt 0.498469 0.001349453
vt 0.498469 0.3751974
vt 0.0004745316 0.3751974
vt 0.0004745316 0.001349453
vt 0.498469 0.001349453
vt 0.498469 0.001349453
vt 0.0004745316 0.001349453
vt 0.0004745316 0.3751974
vt 0.498469 0.3751974
vt 0.0004745316 0.8766326
vt 0.498469 0.8766326
vt 0.498469 0.3751974
vt 0.0004745316 0.3751974
vt 0.0004745316 0.001349453
vt 0.498469 0.001349453
vt 0.498469 0.001349453
vt 0.0004745316 0.001349453
vt 0.0004745316 0.3751974
vt 0.498469 0.3751974
vt 0.0004745316 0.8766326
vt 0.498469 0.8766326
vt 0.498469 0.001349453
vt 0.0004745316 0.001349453
vt 0.0004745316 0.3751974
vt 0.498469 0.3751974
vt 0.0004745316 0.8766326
vt 0.498469 0.8766326
vt 0.498469 0.3751974
vt 0.0004745316 0.3751974
vt 0.0004745316 0.001349453
vt 0.498469 0.001349453
vt 0.498469 0.3751974
vt 0.0004745316 0.3751974
vt 0.0004745316 0.001349453
vt 0.498469 0.001349453
vt 0.498469 0.001349453
vt 0.0004745316 0.001349453
vt 0.0004745316 0.3751974
vt 0.498469 0.3751974
vt 0.498469 0.8766326
vt 0.0004745316 0.8766326
vt 0.498469 0.3751974
vt 0.0004745316 0.3751974
vt 0.0004745316 0.001349453
vt 0.498469 0.001349453
vt 3.000536 0.9555094
vt 2.500453 0.8809177
vt 3.000559 0.8809177
vt 2.500431 0.9555094
vt 2.000348 0.8809177
vt 2.000326 0.9555094
vt 1.500243 0.8809177
vt 1.500221 0.9555094
vt 1.000138 0.8809177
vt 1.000115 0.9555094
vt 0.5000329 0.8809177
vt 0.5000103 0.9555094
vt -9.514494E-05 0.9555094
vt -7.255567E-05 0.8809177
vt -9.19344E-05 0.9553396
vt 0.5000052 0.9889832
vt -9.982027E-05 0.9889832
vt 0.5000134 0.9553396
vt -7.661481E-05 0.8809177
vt 1.00011 0.9889832
vt 0.5000286 0.8809177
vt 1.000119 0.9555094
vt 1.500215 0.9889832
vt 1.000134 0.8809177
vt 1.500224 0.9553396
vt 2.00032 0.9889832
vt 1.500239 0.8809177
vt 2.000329 0.9553396
vt 2.500425 0.9889832
vt 2.000344 0.8809177
vt 2.500434 0.9553396
vt 3.00053 0.9889832
vt 2.500449 0.8809177
vt 3.000539 0.9553396
vt 3.000555 0.8809177
vt -9.357488E-05 0.9545397
vt 0.5000328 0.8809177
vt -7.228171E-05 0.8809177
vt 0.5000118 0.9545397
vt -9.982027E-05 0.9889439
vt 1.000138 0.8809177
vt 0.500005 0.9889439
vt 1.000117 0.9545397
vt 1.500243 0.8809177
vt 1.00011 0.9889439
vt 1.500222 0.9545397
vt 2.000349 0.8809177
vt 1.500215 0.9889439
vt 2.000327 0.9545397
vt 2.00032 0.9889439
vt 2.500454 0.8809177
vt 2.500432 0.9545397
vt 2.500425 0.9889439
vt 3.00053 0.9889439
vt 3.000538 0.9545397
vt 3.000559 0.8809177
vt 3.000529 0.8809177
vt 2.500425 0.9555094
vt 3.00053 0.9555094
vt 2.500424 0.8809177
vt 2.00032 0.9555094
vt 2.000319 0.8809177
vt 1.500215 0.9555094
vt 1.500214 0.8809177
vt 1.00011 0.9555094
vt 1.000109 0.8809177
vt 0.5000051 0.9555094
vt 0.5000043 0.8809177
vt -0.00010061 0.8809177
vt -9.982027E-05 0.9555094
vn 0 1 0
vn 0 1 0
vn -0.1015098 0.9948345 0
vn -0.1015097 0.9948345 0
vn 0.1015097 0.9948345 0
vn 0.1015096 0.9948345 0
vn 0 1 0
vn 0 1 0
vn -0.1015097 0.9948345 0
vn -0.1015098 0.9948345 0
vn 0.1015096 0.9948345 0
vn 0.1015096 0.9948345 0
vn 0.1015096 0.9948345 0
vn 0.1015097 0.9948345 0
vn 0 1 0
vn 0 1 0
vn 0.1015096 0.9948345 0
vn 0.1015096 0.9948345 0
vn 0 1 0
vn 0 1 0
vn 0 1 0
vn 0 1 0
vn -0.1015098 0.9948345 0
vn -0.1015098 0.9948345 0
vn 0.1015096 0.9948345 0
vn 0.1015096 0.9948345 0
vn 0.1015096 0.9948345 0
vn 0.1015096 0.9948345 0
vn 0 1 0
vn 0 1 0
vn 0 1 0
vn 0 1 0
vn -0.1015098 0.9948345 0
vn -0.1015098 0.9948345 0
vn 0.1015096 0.9948345 0
vn 0.1015096 0.9948345 0
vn 0 1 0
vn 0 1 0
vn -0.1015098 0.9948345 0
vn -0.1015098 0.9948345 0
vn 0.1015096 0.9948345 0
vn 0.1015095 0.9948345 0
vn 0.1015096 0.9948345 0
vn 0.1015096 0.9948345 0
vn 0 1 0
vn 0 1 0
vn 0.1015095 0.9948345 0
vn 0.1015096 0.9948345 0
vn 0 1 0
vn 0 1 0
vn 0 1 0
vn 0 1 0
vn -0.1015098 0.9948345 0
vn -0.1015098 0.9948345 0
vn 0.1015095 0.9948345 0
vn 0.1015095 0.9948345 0
vn 0.1015095 0.9948345 0
vn 0.1015095 0.9948345 0
vn 0 1 0
vn 0 1 0
vn 0.6019593 0.7985268 0
vn 0.9613626 0.2752849 0
vn 0.9613621 0.2752869 0
vn 0.6019614 0.7985252 0
vn 0.9613639 0.275281 0
vn 0.6019631 0.798524 0
vn 0.961365 0.2752769 0
vn 0.6019648 0.7985227 0
vn 0.9613662 0.2752727 0
vn 0.6019665 0.7985214 0
vn 0.9613674 0.2752687 0
vn 0.6019682 0.7985201 0
vn 0.6019688 0.7985197 0
vn 0.9613679 0.2752667 0
vn 0.6019703 0.7985185 -1.011809E-07
vn -0.6019682 0.7985201 0
vn -0.6019681 0.7985202 0
vn 0.6019697 0.798519 -1.014913E-07
vn 0.9613684 0.275265 -1.107271E-07
vn -0.6019666 0.7985213 0
vn 0.9613684 0.2752649 -1.112229E-07
vn 0.6019697 0.798519 0
vn -0.6019648 0.7985227 0
vn 0.9613684 0.2752649 -1.103965E-07
vn 0.6019697 0.798519 0
vn -0.6019631 0.7985238 0
vn 0.9613684 0.275265 -1.10066E-07
vn 0.6019697 0.798519 -1.015948E-07
vn -0.6019614 0.7985252 0
vn 0.9613684 0.275265 -1.113881E-07
vn 0.6019697 0.798519 -1.014913E-07
vn -0.6019594 0.7985268 0
vn 0.9613684 0.2752649 -1.112229E-07
vn 0.6019673 0.7985208 -1.011807E-07
vn 0.9613684 0.2752649 -1.107271E-07
vn -0.6019697 0.798519 -1.473338E-07
vn -0.9613684 0.2752649 -1.725359E-07
vn -0.9613684 0.2752649 -1.84435E-07
vn -0.6019697 0.798519 -1.398831E-07
vn 0.6019688 0.7985197 0
vn -0.9613684 0.275265 -1.715444E-07
vn 0.6019682 0.7985201 0
vn -0.6019697 0.798519 -1.352811E-07
vn -0.9613684 0.275265 -1.832781E-07
vn 0.6019665 0.7985214 0
vn -0.6019697 0.798519 -1.426283E-07
vn -0.9613684 0.2752649 -1.723706E-07
vn 0.6019648 0.7985227 0
vn -0.6019697 0.798519 -1.397796E-07
vn 0.6019631 0.798524 0
vn -0.9613684 0.2752649 -1.723706E-07
vn -0.6019697 0.798519 -1.397796E-07
vn 0.6019614 0.7985252 0
vn 0.6019593 0.7985268 0
vn -0.6019697 0.7985189 -1.471268E-07
vn -0.9613684 0.2752649 -1.841044E-07
vn -0.9613621 0.2752869 0
vn -0.6019614 0.7985252 0
vn -0.6019594 0.7985268 0
vn -0.9613626 0.2752849 0
vn -0.6019631 0.7985238 0
vn -0.9613639 0.275281 0
vn -0.6019648 0.7985227 0
vn -0.961365 0.2752769 0
vn -0.6019666 0.7985213 0
vn -0.9613662 0.2752728 0
vn -0.6019682 0.7985201 0
vn -0.9613674 0.2752687 0
vn -0.9613679 0.2752667 0
vn -0.6019681 0.7985202 0
g train_track_3x18_procgen_LOD2_0
f 3/3/3 2/2/2 1/1/1
f 4/4/4 3/3/3 1/1/1
f 3/3/3 4/4/4 5/5/5
f 4/4/4 6/6/6 5/5/5
f 9/9/9 8/8/8 7/7/7
f 10/10/10 9/9/9 7/7/7
f 9/9/9 10/10/10 11/11/11
f 10/10/10 12/12/12 11/11/11
f 15/15/15 14/14/14 13/13/13
f 16/16/16 15/15/15 13/13/13
f 19/19/19 18/18/18 17/17/17
f 20/20/20 19/19/19 17/17/17
f 23/23/23 22/22/22 21/21/21
f 24/24/24 23/23/23 21/21/21
f 23/23/23 24/24/24 25/25/25
f 24/24/24 26/26/26 25/25/25
f 29/29/29 28/28/28 27/27/27
f 30/30/30 29/29/29 27/27/27
f 33/33/33 32/32/32 31/31/31
f 34/34/34 33/33/33 31/31/31
f 33/33/33 34/34/34 35/35/35
f 34/34/34 36/36/36 35/35/35
f 39/39/39 38/38/38 37/37/37
f 40/40/40 39/39/39 37/37/37
f 39/39/39 40/40/40 41/41/41
f 40/40/40 42/42/42 41/41/41
f 45/45/45 44/44/44 43/43/43
f 46/46/46 45/45/45 43/43/43
f 49/49/49 48/48/48 47/47/47
f 50/50/50 49/49/49 47/47/47
f 53/53/53 52/52/52 51/51/51
f 54/54/54 53/53/53 51/51/51
f 54/54/54 55/55/55 53/53/53
f 55/55/55 56/56/56 53/53/53
f 59/59/59 58/58/58 57/57/57
f 60/60/60 59/59/59 57/57/57
f 63/63/63 62/62/62 61/61/61
f 62/62/62 64/64/64 61/61/61
f 62/62/62 65/65/65 64/64/64
f 65/65/65 66/66/66 64/64/64
f 65/65/65 67/67/67 66/66/66
f 67/67/67 68/68/68 66/66/66
f 67/67/67 69/69/69 68/68/68
f 69/69/69 70/70/70 68/68/68
f 70/70/70 69/69/69 71/71/71
f 72/72/72 70/70/70 71/71/71
f 73/73/73 72/72/72 71/71/71
f 74/74/74 73/73/73 71/71/71
f 77/77/77 76/76/76 75/75/75
f 76/76/76 78/78/78 75/75/75
f 75/75/75 78/78/78 79/79/79
f 76/76/76 80/80/80 78/78/78
f 78/78/78 81/81/81 79/79/79
f 80/80/80 82/82/82 78/78/78
f 78/78/78 82/82/82 81/81/81
f 80/80/80 83/83/83 82/82/82
f 82/82/82 84/84/84 81/81/81
f 83/83/83 85/85/85 82/82/82
f 84/84/84 82/82/82 85/85/85
f 83/83/83 86/86/86 85/85/85
f 87/87/87 84/84/84 85/85/85
f 86/86/86 88/88/88 85/85/85
f 87/87/87 85/85/85 88/88/88
f 88/88/88 86/86/86 89/89/89
f 90/90/90 87/87/87 88/88/88
f 91/91/91 88/88/88 89/89/89
f 90/90/90 88/88/88 91/91/91
f 91/91/91 89/89/89 92/92/92
f 93/93/93 90/90/90 91/91/91
f 94/94/94 91/91/91 92/92/92
f 93/93/93 91/91/91 94/94/94
f 95/95/95 93/93/93 94/94/94
f 98/98/98 97/97/97 96/96/96
f 97/97/97 99/99/99 96/96/96
f 96/96/96 99/99/99 100/100/100
f 97/97/97 101/101/101 99/99/99
f 99/99/99 102/102/102 100/100/100
f 101/101/101 103/103/103 99/99/99
f 99/99/99 103/103/103 102/102/102
f 101/101/101 104/104/104 103/103/103
f 103/103/103 105/105/105 102/102/102
f 104/104/104 106/106/106 103/103/103
f 103/103/103 106/106/106 105/105/105
f 104/104/104 107/107/107 106/106/106
f 106/106/106 108/108/108 105/105/105
f 107/107/107 109/109/109 106/106/106
f 106/106/106 109/109/109 108/108/108
f 109/109/109 110/110/110 108/108/108
f 109/109/109 107/107/107 111/111/111
f 110/110/110 109/109/109 112/112/112
f 112/112/112 109/109/109 111/111/111
f 113/113/113 110/110/110 112/112/112
f 114/114/114 113/113/113 112/112/112
f 115/115/115 114/114/114 112/112/112
f 115/115/115 112/112/112 111/111/111
f 116/116/116 115/115/115 111/111/111
f 119/119/119 118/118/118 117/117/117
f 118/118/118 120/120/120 117/117/117
f 118/118/118 121/121/121 120/120/120
f 121/121/121 122/122/122 120/120/120
f 121/121/121 123/123/123 122/122/122
f 123/123/123 124/124/124 122/122/122
f 123/123/123 125/125/125 124/124/124
f 125/125/125 126/126/126 124/124/124
f 126/126/126 125/125/125 127/127/127
f 128/128/128 126/126/126 127/127/127
f 129/129/129 128/128/128 127/127/127
f 130/130/130 129/129/129 127/127/127
